CYRUS 2010 DvDRip H264 PsP Horror

Format                           : MPEG-4
Format profile                   : Base Media / Version 2
Codec ID                         : mp42
File size                        : 270 MiB
Duration                         : 1h 24mn
Overall bit rate                 : 449 Kbps
Encoded date                     : UTC 2010-05-26 14:07:35
Tagged date                      : UTC 2010-05-26 14:08:06
Writing application              : mp4creator 1.6.1d

Video
ID                               : 1
Format                           : AVC
Format/Info                      : Advanced Video Codec
Format profile                   : Baseline@L1.3
Format settings, CABAC           : No
Format settings, ReFrames        : 1 frame
Codec ID                         : avc1
Codec ID/Info                    : Advanced Video Coding
Duration                         : 1h 24mn
Bit rate mode                    : Variable
Bit rate                         : 385 Kbps
Width                            : 480 pixels
Height                           : 272 pixels
Display aspect ratio             : 16:9
Original display aspect ratio    : 16:9
Frame rate mode                  : Constant
Frame rate                       : 24.000 fps
Resolution                       : 24 bits
Colorimetry                      : 4:2:0
Scan type                        : Progressive
Bits/(Pixel*Frame)               : 0.123
Stream size                      : 232 MiB (86%)
Encoded date                     : UTC 2010-05-26 14:07:35
Tagged date                      : UTC 2010-05-26 14:08:01

Audio
ID                               : 2
Format                           : AAC
Format/Info                      : Advanced Audio Codec
Format version                   : Version 4
Format profile                   : LC
Format settings, SBR             : Yes
Format settings, PS              : No
Codec ID                         : 40
Duration                         : 1h 24mn
Bit rate mode                    : Variable
Bit rate                         : 62.9 Kbps
Maximum bit rate                 : 172 Kbps
Channel(s)                       : 2 channels
Channel positions                : L R
Sampling rate                    : 48.0 KHz
Resolution                       : 16 bits
Stream size                      : 37.8 MiB (14%)
Encoded date                     : UTC 2010-05-26 14:08:01
Tagged date                      : UTC 2010-05-26 14:08:06

A small independent news crew investigates a series of unexplained disappearances in a small Midwestern county. They find themselves interviewing a man who possesses an all too intimate knowledge of the details of "The County Line Cannibal" - Cyrus. Based on a true story.
 
http://www.imdb.com/title/tt1327709/

PLEASE SEED AND ENJOY THANKS

To watch this file on you,re PC then i recomend using VLC media player or MEDIA PLAYER CLASSIC 

To burn to disc the i recomend using CONVERTX 2 DVD click link below
  
http://thepiratebay.org/torrent/5018839/VSO.Convert-X.to.DVD.3.5.3%28vice%29

screen shots   
 
http://img291.imageshack.us/img291/7835/cyrush264vicemp4thumbs2.jpg